<?xml version="1.0" standalone="no"?>
<!DOCTYPE svg PUBLIC "-//W3C//DTD SVG 20010904//EN"
 "http://www.w3.org/TR/2001/REC-SVG-20010904/DTD/svg10.dtd">
<svg version="1.0" xmlns="http://www.w3.org/2000/svg"
 width="512.000000pt" height="512.000000pt" viewBox="0 0 512.000000 512.000000"
 preserveAspectRatio="xMidYMid meet">

<g transform="translate(0.000000,512.000000) scale(0.100000,-0.100000)"
fill="#000000" stroke="none">
<path d="M360 2775 l0 -2345 210 0 210 0 0 -211 c0 -182 2 -210 15 -205 8 3
55 32 104 66 50 33 93 60 96 60 3 0 53 -32 110 -70 l105 -70 0 215 0 215 -210
0 -210 0 0 2345 0 2345 -215 0 -215 0 0 -2345z"/>
<path d="M4480 3245 l0 -1875 138 0 139 0 6 677 c4 373 4 1217 0 1876 l-6
1197 -139 0 -138 0 0 -1875z"/>
</g>
</svg>
